<svg width="28" height="28" viewBox="0 0 28 28" fill="none" xmlns="http://www.w3.org/2000/svg">
<mask id="mask0_10739_36859" style="mask-type:alpha" maskUnits="userSpaceOnUse" x="3" y="2" width="22" height="24">
<path fill-rule="evenodd" clip-rule="evenodd" d="M12.7127 3.05001C13.4931 2.53421 14.5066 2.53401 15.2869 3.05001C15.467 3.16911 15.6485 3.34531 16.0115 3.69649C16.2037 3.88237 16.2995 3.97582 16.4002 4.05391C16.8291 4.38651 17.3607 4.55912 17.9031 4.5422C18.0305 4.5382 18.1636 4.51911 18.4285 4.48165C18.9285 4.41093 19.1786 4.37546 19.3943 4.38497C20.329 4.42619 21.1483 5.02241 21.4764 5.89864C21.552 6.10082 21.5961 6.34951 21.6834 6.84688C21.7296 7.11026 21.7523 7.2421 21.7879 7.36446C21.9394 7.8858 22.2686 8.33761 22.7176 8.64278C22.823 8.71443 22.9412 8.77718 23.1775 8.90255C23.6237 9.13927 23.8465 9.25831 24.0154 9.39278C24.7474 9.97554 25.061 10.9393 24.8113 11.841C24.7537 12.049 24.6425 12.276 24.4207 12.7297C24.3032 12.97 24.2441 13.0903 24.201 13.2102C24.0172 13.7208 24.0172 14.2796 24.201 14.7902C24.2441 14.9101 24.3033 15.0305 24.4207 15.2707C24.6424 15.7243 24.7537 15.9514 24.8113 16.1594C25.061 17.0611 24.7474 18.0249 24.0154 18.6076C23.8465 18.7421 23.6237 18.8611 23.1775 19.0979C22.9412 19.2232 22.823 19.286 22.7176 19.3576C22.2686 19.6628 21.9394 20.1146 21.7879 20.6359C21.7523 20.7583 21.7296 20.8901 21.6834 21.1535C21.5961 21.6511 21.5521 21.9005 21.4764 22.1027C21.1482 22.9787 20.3288 23.5742 19.3943 23.6154C19.1786 23.6249 18.9285 23.5895 18.4285 23.5188C18.1636 23.4813 18.0305 23.4622 17.9031 23.4582C17.3607 23.4413 16.829 23.6139 16.4002 23.9465C16.2995 24.0246 16.2036 24.1181 16.0115 24.3039C15.6485 24.6551 15.467 24.8313 15.2869 24.9504C14.5066 25.4664 13.4931 25.4662 12.7127 24.9504C12.5326 24.8313 12.351 24.655 11.9881 24.3039C11.7958 24.1179 11.6991 24.0246 11.5984 23.9465C11.1695 23.6139 10.638 23.4412 10.0955 23.4582C9.9681 23.4622 9.83498 23.4813 9.57011 23.5188C9.0702 23.5895 8.81994 23.6249 8.60429 23.6154C7.66983 23.5742 6.85038 22.9787 6.52226 22.1027C6.44655 21.9005 6.40251 21.6511 6.31523 21.1535C6.26902 20.8901 6.24629 20.7583 6.21073 20.6359C6.05924 20.1146 5.73005 19.6628 5.28105 19.3576C5.17574 19.2861 5.05794 19.223 4.82206 19.0979C4.37579 18.8611 4.15213 18.7421 3.98319 18.6076C3.25134 18.0249 2.93863 17.061 3.18827 16.1594C3.24593 15.9514 3.35625 15.7242 3.57792 15.2707C3.69538 15.0304 3.75448 14.9102 3.79765 14.7902C3.98141 14.2796 3.98142 13.7208 3.79765 13.2102C3.75448 13.0902 3.69539 12.97 3.57792 12.7297C3.35623 12.2762 3.24593 12.049 3.18827 11.841C2.93863 10.9394 3.25132 9.97555 3.98319 9.39278C4.15213 9.25829 4.37579 9.13933 4.82206 8.90255C5.05795 8.77739 5.17573 8.71434 5.28105 8.64278C5.73005 8.33761 6.05924 7.8858 6.21073 7.36446C6.24629 7.24209 6.26902 7.11027 6.31523 6.84688C6.40246 6.34956 6.44663 6.10081 6.52226 5.89864C6.85026 5.02246 7.66965 4.42625 8.60429 4.38497C8.81994 4.37546 9.07021 4.41094 9.57011 4.48165C9.83498 4.51911 9.9681 4.5382 10.0955 4.5422C10.638 4.55916 11.1695 4.38649 11.5984 4.05391C11.6991 3.9758 11.7958 3.88249 11.9881 3.69649C12.351 3.34538 12.5326 3.16909 12.7127 3.05001Z" fill="white"/>
</mask>
<g mask="url(#mask0_10739_36859)">
<rect x="-6.41699" y="-6.41602" width="40.8333" height="40.8333" fill="#D67D56"/>
<rect x="-6.41699" y="-6.41602" width="40.8333" height="40.8333" fill="url(#paint0_linear_10739_36859)" fill-opacity="0.6" style="mix-blend-mode:overlay"/>
<rect x="-6.41699" y="-6.41602" width="40.8333" height="40.8333" fill="url(#paint1_radial_10739_36859)" fill-opacity="0.6" style="mix-blend-mode:overlay"/>
<path fill-rule="evenodd" clip-rule="evenodd" d="M-6.41699 -6.41602H18.083L10.2639 34.4173H-6.41699V-6.41602Z" fill="url(#paint2_linear_10739_36859)" style="mix-blend-mode:lighten"/>
<g opacity="0.04" style="mix-blend-mode:plus-lighter">
<path d="M18.0827 30.3337H9.91602L13.9993 14.0003L18.0827 30.3337Z" fill="url(#paint3_radial_10739_36859)"/>
<path d="M5.33736 28.4371L-0.437439 22.6625L13.9993 14.0003L5.33736 28.4371Z" fill="url(#paint4_radial_10739_36859)"/>
<path d="M28.4361 22.6623L22.6613 28.4371L13.9993 14.0003L28.4361 22.6623Z" fill="url(#paint5_radial_10739_36859)"/>
<path d="M13.9993 14.0003L-2.33398 18.0837V9.91699L13.9993 14.0003Z" fill="url(#paint6_radial_10739_36859)"/>
<path d="M30.3327 18.0837L13.9993 14.0003L30.3327 9.91699V18.0837Z" fill="url(#paint7_radial_10739_36859)"/>
<path d="M13.9993 14.0003L9.91602 -2.33301H18.0827L13.9993 14.0003Z" fill="url(#paint8_radial_10739_36859)"/>
<path d="M28.4361 5.3382L13.9993 14.0003L22.6613 -0.436462L28.4361 5.3382Z" fill="url(#paint9_radial_10739_36859)"/>
<path d="M13.9993 14.0003L-0.437439 5.33834L5.33736 -0.436462L13.9993 14.0003Z" fill="url(#paint10_radial_10739_36859)"/>
</g>
<path d="M27.9271 14C27.9271 6.30828 21.6917 0.0729167 14 0.0729167C6.30828 0.0729167 0.0729167 6.30828 0.0729167 14C0.0729167 21.6917 6.30828 27.9271 14 27.9271V28C6.26801 28 0 21.732 0 14C0 6.26801 6.26801 0 14 0C21.732 0 28 6.26801 28 14C28 21.732 21.732 28 14 28V27.9271C21.6917 27.9271 27.9271 21.6917 27.9271 14ZM26.8333 14C26.8333 6.91235 21.0877 1.16667 14 1.16667C6.91235 1.16667 1.16667 6.91235 1.16667 14C1.16667 21.0877 6.91235 26.8333 14 26.8333C21.0877 26.8333 26.8333 21.0877 26.8333 14ZM12.713 3.05025C13.4934 2.53418 14.5066 2.53418 15.287 3.05025C15.4671 3.16936 15.6487 3.345 16.0118 3.69625C16.204 3.88225 16.3003 3.97517 16.401 4.05328C16.83 4.386 17.3615 4.55879 17.9042 4.54177C18.0316 4.53777 18.164 4.51899 18.4288 4.48153C18.929 4.41078 19.1791 4.37547 19.3948 4.38497C20.3296 4.42617 21.1493 5.02174 21.4774 5.89799C21.5531 6.10021 21.5967 6.34905 21.684 6.84662C21.7302 7.11003 21.7533 7.24178 21.7888 7.36416C21.9403 7.88549 22.2689 8.33773 22.718 8.6429C22.8234 8.71455 22.9415 8.7773 23.1778 8.90267C23.624 9.13942 23.8471 9.25782 24.0161 9.39229C24.7481 9.97504 25.0613 10.9387 24.8116 11.8404C24.754 12.0485 24.643 12.2754 24.4211 12.7292C24.3036 12.9696 24.245 13.0898 24.2018 13.2097C24.0179 13.7205 24.0179 14.2795 24.2018 14.7903C24.245 14.9102 24.3036 15.0304 24.4211 15.2708C24.643 15.7246 24.754 15.9515 24.8116 16.1596C25.0613 17.0613 24.7481 18.025 24.0161 18.6077C23.8471 18.7422 23.624 18.8606 23.1778 19.0973C22.9415 19.2227 22.8234 19.2855 22.718 19.3571C22.2689 19.6623 21.9403 20.1145 21.7888 20.6358C21.7533 20.7582 21.7302 20.89 21.684 21.1534C21.5967 21.6509 21.5531 21.8998 21.4774 22.102C21.1493 22.9783 20.3296 23.5738 19.3948 23.615C19.1791 23.6245 18.929 23.5892 18.4288 23.5185C18.164 23.481 18.0316 23.4622 17.9042 23.4582C17.3615 23.4412 16.83 23.614 16.401 23.9467C16.3003 24.0248 16.204 24.1178 16.0118 24.3038C15.6487 24.655 15.4671 24.8306 15.287 24.9497C14.5066 25.4658 13.4934 25.4658 12.713 24.9497C12.5329 24.8306 12.3513 24.655 11.9882 24.3038C11.796 24.1178 11.6997 24.0248 11.599 23.9467C11.17 23.614 10.6384 23.4412 10.0958 23.4582C9.96844 23.4622 9.836 23.481 9.57117 23.5185C9.07098 23.5892 8.82088 23.6245 8.60516 23.615C7.67043 23.5738 6.85065 22.9783 6.52262 22.102C6.44693 21.8998 6.40326 21.6509 6.31598 21.1534C6.26977 20.89 6.24672 20.7582 6.21116 20.6358C6.05967 20.1145 5.73105 19.6623 5.28204 19.3571C5.17663 19.2855 5.05847 19.2227 4.82218 19.0973C4.37596 18.8606 4.15285 18.7422 3.98393 18.6077C3.25193 18.025 2.93873 17.0613 3.1884 16.1596C3.24601 15.9515 3.35705 15.7246 3.5789 15.2708C3.69638 15.0304 3.75505 14.9102 3.79822 14.7903C3.98209 14.2795 3.98209 13.7205 3.79822 13.2097C3.75505 13.0898 3.69638 12.9696 3.5789 12.7292C3.35705 12.2754 3.24601 12.0485 3.1884 11.8404C2.93873 10.9387 3.25193 9.97504 3.98393 9.39229C4.15285 9.25782 4.37596 9.13942 4.82218 8.90267C5.05847 8.7773 5.17663 8.71455 5.28204 8.6429C5.73105 8.33773 6.05967 7.88549 6.21116 7.36416C6.24672 7.24178 6.26977 7.11003 6.31598 6.84662C6.40326 6.34905 6.44693 6.10021 6.52262 5.89799C6.85065 5.02174 7.67043 4.42617 8.60516 4.38497C8.82088 4.37547 9.07098 4.41078 9.57117 4.48153C9.836 4.51899 9.96844 4.53777 10.0958 4.54177C10.6384 4.55879 11.17 4.386 11.599 4.05328C11.6997 3.97517 11.796 3.88225 11.9882 3.69625C12.3513 3.345 12.5329 3.16936 12.713 3.05025ZM15.2468 3.11106C14.4908 2.61112 13.5092 2.61112 12.7532 3.11106C12.5801 3.22551 12.4043 3.39517 12.0389 3.74866C11.8478 3.93357 11.7483 4.02984 11.6437 4.11096C11.2014 4.45406 10.6531 4.63224 10.0935 4.61469C9.96124 4.61053 9.82412 4.59096 9.56091 4.55373C9.05761 4.48254 8.8157 4.44876 8.60844 4.45789C7.70292 4.4978 6.90876 5.07476 6.59098 5.92362C6.51826 6.11793 6.47558 6.35847 6.38776 6.85915C6.34183 7.12094 6.31816 7.25742 6.28123 7.38452C6.12501 7.92213 5.78607 8.38844 5.32306 8.70315C5.21359 8.77754 5.09123 8.84243 4.85636 8.96704C4.40728 9.20531 4.19168 9.32018 4.02936 9.4494C3.32026 10.0139 3.01678 10.9474 3.25861 11.8209C3.31397 12.0209 3.42113 12.2404 3.64441 12.6972C3.7612 12.9361 3.82203 13.0606 3.86686 13.1851C4.05645 13.7118 4.05645 14.2882 3.86686 14.8149C3.82203 14.9394 3.7612 15.0639 3.64441 15.3028C3.42113 15.7596 3.31397 15.9791 3.25861 16.1791C3.01678 17.0526 3.32026 17.9861 4.02936 18.5506C4.19168 18.6798 4.40728 18.7947 4.85636 19.033C5.09123 19.1576 5.21359 19.2225 5.32306 19.2969C5.78607 19.6116 6.12501 20.0779 6.28123 20.6155C6.31816 20.7426 6.34183 20.8791 6.38776 21.1408C6.47559 21.6416 6.51825 21.8822 6.59098 22.0765C6.90878 22.9253 7.70295 23.5023 8.60844 23.5423C8.8157 23.5514 9.05762 23.5175 9.56091 23.4463C9.82412 23.409 9.96124 23.3895 10.0935 23.3853C10.6531 23.3678 11.2014 23.5459 11.6437 23.889C11.7483 23.9702 11.8478 24.0664 12.0389 24.2513C12.4043 24.6048 12.5801 24.7745 12.7532 24.8889C13.5092 25.3889 14.4908 25.3889 15.2468 24.8889C15.4199 24.7745 15.5957 24.6048 15.9611 24.2513C16.1522 24.0664 16.2517 23.9702 16.3563 23.889C16.7986 23.5459 17.3469 23.3678 17.9065 23.3853C18.0388 23.3895 18.1759 23.409 18.4391 23.4463C18.9424 23.5175 19.1843 23.5514 19.3916 23.5423C20.2971 23.5023 21.0914 22.9254 21.4092 22.0765C21.4819 21.8822 21.5244 21.6416 21.6122 21.1408C21.6582 20.8791 21.6818 20.7426 21.7188 20.6155C21.875 20.0779 22.2139 19.6116 22.6769 19.2969C22.7864 19.2225 22.9088 19.1576 23.1436 19.033C23.5927 18.7947 23.8083 18.6798 23.9706 18.5506C24.6797 17.9861 24.9832 17.0526 24.7414 16.1791C24.686 15.9791 24.5789 15.7596 24.3556 15.3028C24.2388 15.0639 24.178 14.9394 24.1331 14.8149C23.9436 14.2882 23.9436 13.7118 24.1331 13.1851C24.178 13.0606 24.2388 12.9361 24.3556 12.6972C24.5789 12.2404 24.686 12.0209 24.7414 11.8209C24.9832 10.9474 24.6797 10.0139 23.9706 9.4494C23.8083 9.32018 23.5927 9.20531 23.1436 8.96704C22.9088 8.84243 22.7864 8.77754 22.6769 8.70315C22.2139 8.38844 21.875 7.92213 21.7188 7.38452C21.6818 7.25742 21.6582 7.12094 21.6122 6.85915C21.5244 6.35851 21.4819 6.11792 21.4092 5.92362L21.378 5.84473C21.0416 5.03911 20.2688 4.49655 19.3916 4.45789C19.1843 4.44876 18.9424 4.48254 18.4391 4.55373C18.1759 4.59096 18.0388 4.61053 17.9065 4.61469C17.3469 4.63224 16.7986 4.45407 16.3563 4.11096C16.2517 4.02984 16.1522 3.93357 15.9611 3.74866C15.5957 3.39517 15.4199 3.22551 15.2468 3.11106ZM26.9062 14C26.9062 21.1279 21.1279 26.9062 14 26.9062C6.87207 26.9062 1.09375 21.1279 1.09375 14C1.09375 6.87207 6.87207 1.09375 14 1.09375C21.1279 1.09375 26.9062 6.87207 26.9062 14Z" fill="url(#paint11_linear_10739_36859)"/>
</g>
<path d="M18.0833 13.417H9.91667C9.27233 13.417 8.75 13.9393 8.75 14.5837V18.667C8.75 19.3113 9.27233 19.8337 9.91667 19.8337H18.0833C18.7277 19.8337 19.25 19.3113 19.25 18.667V14.5837C19.25 13.9393 18.7277 13.417 18.0833 13.417Z" stroke="#18191B" stroke-linecap="round" stroke-linejoin="round"/>
<path d="M11.083 13.417V11.0837C11.083 10.3101 11.3903 9.56825 11.9373 9.02126C12.4843 8.47428 13.2261 8.16699 13.9997 8.16699C14.7732 8.16699 15.5151 8.47428 16.0621 9.02126C16.6091 9.56825 16.9163 10.3101 16.9163 11.0837V13.417" stroke="#18191B" stroke-linecap="round" stroke-linejoin="round"/>
<defs>
<linearGradient id="paint0_linear_10739_36859" x1="13.9997" y1="-1.78895" x2="13.9997" y2="29.5786" gradientUnits="userSpaceOnUse">
<stop stop-color="white"/>
<stop offset="1" stop-color="white" stop-opacity="0"/>
</linearGradient>
<radialGradient id="paint1_radial_10739_36859" cx="0" cy="0" r="1" gradientUnits="userSpaceOnUse" gradientTransform="translate(13.9997 7.22086) rotate(90) scale(20.6892 15.6973)">
<stop stop-color="white"/>
<stop offset="1" stop-color="white" stop-opacity="0"/>
</radialGradient>
<linearGradient id="paint2_linear_10739_36859" x1="-6.41699" y1="-6.41602" x2="-6.41699" y2="34.4173" gradientUnits="userSpaceOnUse">
<stop offset="0.135095" stop-color="white"/>
<stop offset="0.877908" stop-color="white" stop-opacity="0.01"/>
</linearGradient>
<radialGradient id="paint3_radial_10739_36859" cx="0" cy="0" r="1" gradientUnits="userSpaceOnUse" gradientTransform="translate(13.9993 14.0003) rotate(90) scale(16.3333)">
<stop offset="0.075" stop-color="white" stop-opacity="0"/>
<stop offset="0.34" stop-color="white"/>
<stop offset="0.705" stop-color="white" stop-opacity="0.01"/>
</radialGradient>
<radialGradient id="paint4_radial_10739_36859" cx="0" cy="0" r="1" gradientUnits="userSpaceOnUse" gradientTransform="translate(13.9993 14.0003) rotate(90) scale(16.3333)">
<stop offset="0.075" stop-color="white" stop-opacity="0"/>
<stop offset="0.34" stop-color="white"/>
<stop offset="0.705" stop-color="white" stop-opacity="0.01"/>
</radialGradient>
<radialGradient id="paint5_radial_10739_36859" cx="0" cy="0" r="1" gradientUnits="userSpaceOnUse" gradientTransform="translate(13.9993 14.0003) rotate(90) scale(16.3333)">
<stop offset="0.075" stop-color="white" stop-opacity="0"/>
<stop offset="0.34" stop-color="white"/>
<stop offset="0.705" stop-color="white" stop-opacity="0.01"/>
</radialGradient>
<radialGradient id="paint6_radial_10739_36859" cx="0" cy="0" r="1" gradientUnits="userSpaceOnUse" gradientTransform="translate(13.9993 14.0003) rotate(90) scale(16.3333)">
<stop offset="0.075" stop-color="white" stop-opacity="0"/>
<stop offset="0.34" stop-color="white"/>
<stop offset="0.705" stop-color="white" stop-opacity="0.01"/>
</radialGradient>
<radialGradient id="paint7_radial_10739_36859" cx="0" cy="0" r="1" gradientUnits="userSpaceOnUse" gradientTransform="translate(13.9993 14.0003) rotate(90) scale(16.3333)">
<stop offset="0.075" stop-color="white" stop-opacity="0"/>
<stop offset="0.34" stop-color="white"/>
<stop offset="0.705" stop-color="white" stop-opacity="0.01"/>
</radialGradient>
<radialGradient id="paint8_radial_10739_36859" cx="0" cy="0" r="1" gradientUnits="userSpaceOnUse" gradientTransform="translate(13.9993 14.0003) rotate(90) scale(16.3333)">
<stop offset="0.075" stop-color="white" stop-opacity="0"/>
<stop offset="0.34" stop-color="white"/>
<stop offset="0.705" stop-color="white" stop-opacity="0.01"/>
</radialGradient>
<radialGradient id="paint9_radial_10739_36859" cx="0" cy="0" r="1" gradientUnits="userSpaceOnUse" gradientTransform="translate(13.9993 14.0003) rotate(90) scale(16.3333)">
<stop offset="0.075" stop-color="white" stop-opacity="0"/>
<stop offset="0.34" stop-color="white"/>
<stop offset="0.705" stop-color="white" stop-opacity="0.01"/>
</radialGradient>
<radialGradient id="paint10_radial_10739_36859" cx="0" cy="0" r="1" gradientUnits="userSpaceOnUse" gradientTransform="translate(13.9993 14.0003) rotate(90) scale(16.3333)">
<stop offset="0.075" stop-color="white" stop-opacity="0"/>
<stop offset="0.34" stop-color="white"/>
<stop offset="0.705" stop-color="white" stop-opacity="0.01"/>
</radialGradient>
<linearGradient id="paint11_linear_10739_36859" x1="14" y1="0" x2="14" y2="28" gradientUnits="userSpaceOnUse">
<stop stop-color="white"/>
<stop offset="1" stop-color="#999999"/>
</linearGradient>
</defs>
</svg>
